# xmcd CD database file
#
# Track frame offsets:
#	150
#	10461
#	22494
#	34471
#	47984
#	59376
#	67694
#	83043
#	96141
#	107841
#	118204
#	129720
#	143365
#	159359
#	173891
#	185777
#
# Disc length: 2633 seconds
#
# Revision: 0
# Processed by: cddbd v1.5.1PL2 Copyright (c) Steve Scherf et al.
# Submitted via: CDex 1.51
#
DISCID=e40a4710
DTITLE=Tchan-Tchou Vidal - La Gitane
DYEAR=2006
DGENRE=Jazz
TTITLE0=Les yeux noirs
TTITLE1=La gitane
TTITLE2=Premier rendez-vous
TTITLE3=Make the knife
TTITLE4=Just a gigolo
TTITLE5=Dolores
TTITLE6=Les flots du danube
TTITLE7=I'am confessin (that i love you)
TTITLE8=The cheik of Araby
TTITLE9=Les deux guitares
TTITLE10=Bye bye blue
TTITLE11=Besame mucho
TTITLE12=Nuages
TTITLE13=Everybody love somebody
TTITLE14=Stranger in the night
TTITLE15=Tant pis ou tant mieux
EXTD=YEAR: 2006
EXTT0=
EXTT1=
EXTT2=
EXTT3=
EXTT4=
EXTT5=
EXTT6=
EXTT7=
EXTT8=
EXTT9=
EXTT10=
EXTT11=
EXTT12=
EXTT13=
EXTT14=
EXTT15=
PLAYORDER=
